# xmcd
#
# Track frame offsets:
#	150
#	25896
#	51511
#	75585
#	103048
#	140062
#	177833
#	199902
#	234388
#	255031
#
# Disc length: 3749 seconds
#
# Revision: 1
# Processed by: cddbd v1.5.2PL0 Copyright (c) Steve Scherf et al.
# Submitted via: audiograbber 1.83.01
#
DISCID=800ea30a
DTITLE=J.J. Band - Live! on Blues Colours Festival
DYEAR=2006
DGENRE=Blues
TTITLE0=Walking By Myself
TTITLE1=Searchin' For The Blues
TTITLE2=I Was Wrong
TTITLE3=When You Love Someone
TTITLE4=Voodoo Woman
TTITLE5=Roxanne
TTITLE6=Three O'clock Blues
TTITLE7=Fever
TTITLE8=Jailhouse Rock
TTITLE9=Boogie Woogie Papa
EXTD=Polish blues band
EXTT0=
EXTT1=
EXTT2=
EXTT3=
EXTT4=
EXTT5=
EXTT6=
EXTT7=
EXTT8=
EXTT9=
PLAYORDER=
